<?xml version="1.0" encoding="UTF-8"?>
<svg id="Layer_2" data-name="Layer 2" xmlns="http://www.w3.org/2000/svg" viewBox="0 0 438.45 90.35">
  <defs>
    <style>
      .cls-1, .cls-2, .cls-3 {
        fill: #224d7e;
      }

      .cls-4 {
        fill: #436eb6;
      }

      .cls-4, .cls-2, .cls-3 {
        fill-rule: evenodd;
      }

      .cls-5 {
        fill: none;
        stroke-linecap: round;
        stroke-linejoin: round;
        stroke-width: 4.6px;
      }

      .cls-5, .cls-2 {
        stroke: #224d7e;
      }

      .cls-2 {
        stroke-miterlimit: 22.93;
        stroke-width: 3.07px;
      }
    </style>
  </defs>
  <g id="Camada_1" data-name="Camada 1">
    <g>
      <polygon class="cls-3" points="188.86 27.31 181.35 27.31 164.41 65.46 173.23 65.46 185.1 37.77 196.54 65.46 205.79 65.46 188.86 27.31"/>
      <rect class="cls-1" x="210.66" y="27.31" width="7.78" height="38.15"/>
      <path class="cls-3" d="M248.01,65.46l-8.92-13.95h-6.37v13.95h-7.85V27.31h17.41c1.65,0,3.22.31,4.7.94,1.48.63,2.76,1.49,3.86,2.58,1.11,1.1,1.97,2.38,2.59,3.86.63,1.48.94,3.04.94,4.69,0,2.37-.59,4.5-1.78,6.4-1.18,1.9-2.76,3.36-4.73,4.39l9.72,15.29h-9.59ZM232.72,44.67h9.54c1.15,0,2.16-.5,3.01-1.51.84-1.01,1.26-2.27,1.26-3.79,0-1.43-.42-2.67-1.26-3.72-.85-1.05-1.86-1.58-3.01-1.58h-9.54v10.59Z"/>
      <path class="cls-3" d="M280.06,65.46h-17.7V27.31h15.15c1.74,0,3.38.29,4.9.87,1.52.58,2.85,1.36,3.99,2.35,1.14.98,2.05,2.16,2.72,3.52.67,1.36,1.01,2.81,1.01,4.32,0,1.43-.31,2.81-.94,4.12-.63,1.32-1.48,2.45-2.55,3.39,1.56.98,2.82,2.24,3.76,3.76.94,1.52,1.41,3.22,1.41,5.1,0,1.48-.3,2.86-.91,4.16s-1.44,2.43-2.51,3.39c-1.07.96-2.32,1.72-3.75,2.28-1.43.56-2.95.84-4.56.84v.07h0ZM280.09,50.1h-9.88v8.18h9.88v-.07c1.02,0,1.89-.4,2.59-1.21.72-.8,1.07-1.77,1.07-2.88s-.36-2.12-1.07-2.88c-.7-.76-1.58-1.14-2.59-1.14h0ZM270.21,34.08v8.85h7.33c1.43,0,2.62-.44,3.58-1.31.95-.87,1.43-1.93,1.43-3.19,0-.63-.2-1.21-.6-1.74-.4-.54-.86-.99-1.4-1.37-.54-.38-1.07-.68-1.63-.91-.56-.22-1.02-.34-1.37-.34h-7.33Z"/>
      <path class="cls-3" d="M315.03,26.7c2.73,0,5.32.51,7.76,1.54,2.45,1.03,4.56,2.44,6.35,4.22,1.79,1.79,3.22,3.89,4.27,6.3s1.58,4.98,1.58,7.71-.53,5.29-1.58,7.68c-1.05,2.39-2.48,4.48-4.27,6.27-1.79,1.79-3.9,3.2-6.35,4.22-2.44,1.03-5.03,1.54-7.76,1.54s-5.38-.51-7.79-1.54c-2.43-1.03-4.54-2.44-6.35-4.22-1.81-1.79-3.25-3.88-4.3-6.27-1.05-2.39-1.58-4.95-1.58-7.68s.53-5.3,1.58-7.71,2.49-4.51,4.3-6.3c1.81-1.79,3.92-3.2,6.35-4.22,2.41-1.03,5.02-1.54,7.79-1.54h0ZM315,34.21c-1.7,0-3.3.32-4.79.97-1.5.65-2.8,1.52-3.92,2.62-1.12,1.1-2,2.39-2.65,3.89-.65,1.5-.97,3.1-.97,4.79s.32,3.22.97,4.69c.65,1.48,1.53,2.76,2.65,3.86,1.12,1.1,2.43,1.97,3.92,2.62,1.5.65,3.1.97,4.79.97s3.23-.32,4.73-.97c1.5-.65,2.79-1.52,3.89-2.62s1.97-2.38,2.61-3.86c.65-1.48.97-3.04.97-4.69s-.32-3.3-.97-4.79c-.65-1.5-1.52-2.79-2.61-3.89-1.1-1.1-2.39-1.97-3.89-2.62-1.5-.65-3.07-.97-4.73-.97Z"/>
      <path class="cls-3" d="M361.27,65.46l-8.92-13.95h-6.37v13.95h-7.85V27.31h17.41c1.65,0,3.22.31,4.7.94,1.48.63,2.76,1.49,3.86,2.58,1.11,1.1,1.97,2.38,2.59,3.86.63,1.48.94,3.04.94,4.69,0,2.37-.59,4.5-1.78,6.4-1.18,1.9-2.76,3.36-4.73,4.39l9.72,15.29h-9.59ZM345.98,44.67h9.54c1.15,0,2.16-.5,3.01-1.51.84-1.01,1.26-2.27,1.26-3.79,0-1.43-.42-2.67-1.26-3.72-.85-1.05-1.86-1.58-3.01-1.58h-9.54v10.59Z"/>
      <polygon class="cls-3" points="383.53 65.46 375.62 65.46 375.62 27.31 385.21 27.31 403.78 52.85 403.78 27.31 411.89 27.31 411.89 65.46 401.3 65.46 383.53 40.05 383.53 65.46"/>
      <polygon class="cls-3" points="416.72 65.46 416.72 27.31 438.45 27.31 438.45 34.08 425.1 34.08 425.1 42.93 437.64 42.93 437.64 50.64 425.1 50.64 425.1 57.75 438.45 57.75 438.45 65.46 416.72 65.46"/>
      <polygon class="cls-4" points="56.04 74.39 19.96 61.52 24.31 56.93 14.21 55.78 34.29 46.38 56.73 22.68 56.3 54.85 63.62 73.47 56.12 68.33 56.04 74.39"/>
      <path class="cls-2" d="M6.22,11h77.56c1.29,0,2.46.53,3.31,1.38h0c.85.85,1.38,2.02,1.38,3.31v14.81h-1v-14.81c0-1.01-.41-1.93-1.08-2.6h0c-.67-.67-1.58-1.08-2.6-1.08H6.22c-1.01,0-1.93.41-2.6,1.08h0c-.67.67-1.08,1.59-1.08,2.6v14.81h-1v-14.81c0-1.29.53-2.46,1.38-3.31h0c.85-.85,2.02-1.38,3.31-1.38h0ZM88.46,70.09v10.62c0,1.29-.53,2.46-1.38,3.31h0c-.85.85-2.02,1.38-3.31,1.38H6.22c-1.29,0-2.46-.53-3.31-1.38h0c-.85-.85-1.38-2.02-1.38-3.31v-10.62h1v10.62c0,1.01.41,1.93,1.08,2.6h0c.67.67,1.58,1.08,2.6,1.08h77.56c1.01,0,1.93-.41,2.6-1.08h0c.67-.67,1.08-1.59,1.08-2.6v-10.62h1Z"/>
      <line class="cls-5" x1="128.94" y1="2.3" x2="128.94" y2="88.04"/>
      <polygon class="cls-4" points="190.41 65.35 179.64 65.42 180.35 63.79 177.57 64.46 181.97 60.04 185.09 51.63 188.6 60.16 192.33 64.38 189.85 63.74 190.41 65.35"/>
    </g>
  </g>
</svg>