<?xml version="1.0" encoding="UTF-8"?>
<svg id="Layer_2" data-name="Layer 2" xmlns="http://www.w3.org/2000/svg" viewBox="0 0 251.15 36.2">
  <defs>
    <style>
      .cls-1 {
        fill-rule: evenodd;
      }

      .cls-1, .cls-2 {
        fill: #fff;
      }
    </style>
  </defs>
  <g id="Camada_1" data-name="Camada 1">
    <g>
      <polygon class="cls-1" points="22.4 .55 15.52 .55 0 35.52 8.08 35.52 18.96 10.14 29.45 35.52 37.93 35.52 22.4 .55"/>
      <rect class="cls-2" x="42.39" y=".55" width="7.13" height="34.97"/>
      <path class="cls-1" d="M76.62,35.52l-8.17-12.78h-5.84v12.78h-7.19V.55h15.96c1.52,0,2.95.29,4.31.86,1.35.57,2.53,1.36,3.53,2.37,1.01,1,1.8,2.18,2.38,3.53.57,1.35.86,2.79.86,4.3,0,2.17-.54,4.13-1.63,5.87-1.09,1.74-2.53,3.08-4.33,4.03l8.91,14.01h-8.79ZM62.61,16.47h8.75c1.05,0,1.98-.46,2.76-1.38.77-.92,1.16-2.08,1.16-3.47,0-1.31-.39-2.45-1.16-3.41-.78-.96-1.7-1.44-2.76-1.44h-8.75v9.71Z"/>
      <path class="cls-1" d="M105.99,35.52h-16.22V.55h13.89c1.6,0,3.09.27,4.49.8,1.39.53,2.61,1.25,3.66,2.15,1.04.9,1.87,1.98,2.49,3.23.61,1.25.92,2.57.92,3.96,0,1.31-.29,2.57-.86,3.78-.57,1.21-1.35,2.24-2.34,3.1,1.43.9,2.58,2.05,3.44,3.44.86,1.39,1.29,2.95,1.29,4.67,0,1.35-.28,2.62-.83,3.81-.55,1.19-1.32,2.22-2.3,3.1-.98.88-2.13,1.58-3.44,2.09-1.31.51-2.7.77-4.18.77v.06h0ZM106.01,21.45h-9.05v7.5h9.05v-.06c.93,0,1.73-.37,2.38-1.11.66-.74.98-1.62.98-2.64s-.33-1.95-.98-2.64c-.65-.7-1.44-1.04-2.38-1.04h0ZM96.96,6.76v8.11h6.72c1.31,0,2.4-.4,3.28-1.2.87-.8,1.31-1.77,1.31-2.92,0-.57-.18-1.11-.55-1.6-.37-.49-.79-.91-1.28-1.26-.49-.35-.98-.62-1.5-.83-.51-.2-.93-.31-1.26-.31h-6.72Z"/>
      <path class="cls-1" d="M138.04,0c2.5,0,4.88.47,7.11,1.41,2.24.94,4.18,2.23,5.82,3.87,1.64,1.64,2.95,3.56,3.91,5.78.96,2.21,1.44,4.57,1.44,7.07s-.48,4.84-1.44,7.04c-.96,2.19-2.27,4.11-3.91,5.75-1.64,1.64-3.57,2.93-5.82,3.87-2.23.94-4.61,1.41-7.11,1.41s-4.93-.47-7.14-1.41c-2.22-.94-4.16-2.23-5.82-3.87-1.66-1.64-2.98-3.55-3.94-5.75-.96-2.19-1.44-4.54-1.44-7.04s.48-4.85,1.44-7.07c.96-2.21,2.28-4.14,3.94-5.78,1.66-1.64,3.59-2.93,5.82-3.87,2.21-.94,4.6-1.41,7.14-1.41h0ZM138.01,6.88c-1.56,0-3.02.3-4.39.89-1.37.59-2.57,1.39-3.59,2.4-1.02,1-1.83,2.19-2.43,3.56-.59,1.37-.89,2.84-.89,4.39s.3,2.95.89,4.3c.59,1.35,1.4,2.53,2.43,3.53,1.02,1,2.22,1.8,3.59,2.4,1.37.59,2.84.89,4.39.89s2.96-.3,4.33-.89c1.37-.59,2.56-1.39,3.56-2.4s1.8-2.18,2.4-3.53c.59-1.35.89-2.79.89-4.3s-.3-3.02-.89-4.39c-.59-1.37-1.39-2.56-2.4-3.56-1-1-2.19-1.8-3.56-2.4-1.37-.59-2.82-.89-4.33-.89Z"/>
      <path class="cls-1" d="M180.42,35.52l-8.17-12.78h-5.84v12.78h-7.19V.55h15.96c1.52,0,2.95.29,4.31.86,1.35.57,2.53,1.36,3.53,2.37,1.01,1,1.8,2.18,2.38,3.53.57,1.35.86,2.79.86,4.3,0,2.17-.54,4.13-1.63,5.87-1.09,1.74-2.53,3.08-4.33,4.03l8.91,14.01h-8.79ZM166.4,16.47h8.75c1.05,0,1.98-.46,2.76-1.38.77-.92,1.16-2.08,1.16-3.47,0-1.31-.39-2.45-1.16-3.41-.78-.96-1.7-1.44-2.76-1.44h-8.75v9.71Z"/>
      <polygon class="cls-1" points="200.82 35.52 193.57 35.52 193.57 .55 202.36 .55 219.38 23.97 219.38 .55 226.81 .55 226.81 35.52 217.1 35.52 200.82 12.23 200.82 35.52"/>
      <polygon class="cls-1" points="231.24 35.52 231.24 .55 251.15 .55 251.15 6.76 238.92 6.76 238.92 14.87 250.41 14.87 250.41 21.94 238.92 21.94 238.92 28.45 251.15 28.45 251.15 35.52 231.24 35.52"/>
      <polygon class="cls-1" points="23.83 35.42 13.96 35.48 14.61 33.99 12.07 34.6 16.1 30.56 18.95 22.84 22.17 30.67 25.58 34.53 23.32 33.95 23.83 35.42"/>
    </g>
  </g>
</svg>