<?xml version="1.0" encoding="UTF-8"?>
<svg id="Layer_2" data-name="Layer 2" xmlns="http://www.w3.org/2000/svg" viewBox="0 0 90 77.46">
  <defs>
    <style>
      .cls-1 {
        fill: #436eb6;
      }

      .cls-1, .cls-2 {
        fill-rule: evenodd;
      }

      .cls-2 {
        fill: #224d7e;
        stroke: #224d7e;
        stroke-miterlimit: 22.93;
        stroke-width: 3.07px;
      }
    </style>
  </defs>
  <g id="Camada_1" data-name="Camada 1">
    <g>
      <polygon class="cls-1" points="56.04 64.93 19.96 52.06 24.31 47.46 14.21 46.31 34.29 36.92 56.73 13.22 56.3 45.39 63.62 64.01 56.12 58.87 56.04 64.93"/>
      <path class="cls-2" d="M6.22,1.53h77.56c1.29,0,2.46.53,3.31,1.38h0c.85.85,1.38,2.02,1.38,3.31v14.81h-1V6.22c0-1.01-.41-1.93-1.08-2.6h0c-.67-.67-1.58-1.08-2.6-1.08H6.22c-1.01,0-1.93.41-2.6,1.08h0c-.67.67-1.08,1.59-1.08,2.6v14.81h-1V6.22c0-1.29.53-2.46,1.38-3.31h0c.85-.85,2.02-1.38,3.31-1.38h0ZM88.46,60.62v10.62c0,1.29-.53,2.46-1.38,3.31h0c-.85.85-2.02,1.38-3.31,1.38H6.22c-1.29,0-2.46-.53-3.31-1.38h0c-.85-.85-1.38-2.02-1.38-3.31v-10.62h1v10.62c0,1.01.41,1.93,1.08,2.6h0c.67.67,1.58,1.08,2.6,1.08h77.56c1.01,0,1.93-.41,2.6-1.08h0c.67-.67,1.08-1.59,1.08-2.6v-10.62h1Z"/>
    </g>
  </g>
</svg>