<?xml version="1.0" encoding="UTF-8"?>
<svg id="Layer_2" data-name="Layer 2" xmlns="http://www.w3.org/2000/svg" viewBox="0 0 900.14 107.28">
  <defs>
    <style>
      .cls-1 {
        fill: #e8edf1;
      }
    </style>
  </defs>
  <g id="horizontal-icon_wordmark" data-name="horizontal-icon+wordmark">
    <g>
      <g>
        <path class="cls-1" d="M161.77,86.98c-4.68-2.68-8.26-6.38-10.74-11.1-2.48-4.72-3.72-10.16-3.72-16.32s1.24-11.34,3.72-16.02c2.48-4.68,6.06-8.34,10.74-10.98,4.68-2.64,10.22-3.96,16.62-3.96,5.44,0,10.26.98,14.46,2.94,4.2,1.96,7.62,4.7,10.26,8.22,2.64,3.52,4.44,7.64,5.4,12.36h-11.76c-1.28-4.4-3.48-7.8-6.6-10.2-3.12-2.4-7.04-3.6-11.76-3.6-6,0-10.72,1.88-14.16,5.64-3.44,3.76-5.16,8.96-5.16,15.6,0,4.56.78,8.46,2.34,11.7,1.56,3.24,3.8,5.72,6.72,7.44,2.92,1.72,6.34,2.58,10.26,2.58,4.8,0,8.78-1.22,11.94-3.66,3.16-2.44,5.3-5.86,6.42-10.26h12c-1.44,7.2-4.8,12.94-10.08,17.22-5.28,4.28-12.04,6.42-20.28,6.42-6.4,0-11.94-1.34-16.62-4.02Z"/>
        <path class="cls-1" d="M227.95,86.98c-4.72-2.68-8.32-6.38-10.8-11.1-2.48-4.72-3.72-10.16-3.72-16.32s1.24-11.34,3.72-16.02c2.48-4.68,6.08-8.34,10.8-10.98,4.72-2.64,10.32-3.96,16.8-3.96s12.1,1.32,16.86,3.96c4.76,2.64,8.38,6.3,10.86,10.98,2.48,4.68,3.72,10.02,3.72,16.02s-1.24,11.6-3.72,16.32c-2.48,4.72-6.1,8.42-10.86,11.1-4.76,2.68-10.38,4.02-16.86,4.02s-12.08-1.34-16.8-4.02ZM259.09,75.52c3.48-3.76,5.22-9.08,5.22-15.96,0-4.32-.78-8.08-2.34-11.28-1.56-3.2-3.82-5.66-6.78-7.38-2.96-1.72-6.48-2.58-10.56-2.58-6.08,0-10.84,1.88-14.28,5.64-3.44,3.76-5.16,8.96-5.16,15.6,0,4.56.78,8.44,2.34,11.64,1.56,3.2,3.78,5.66,6.66,7.38,2.88,1.72,6.36,2.58,10.44,2.58,6.16,0,10.98-1.88,14.46-5.64Z"/>
        <path class="cls-1" d="M286.51,42.52l.21-12.96h9.55v14.16l-.76-2.92c1.76-4.4,4.46-6.7,8.1-8.9,3.64-2.2,7.98-3.3,13.02-3.3,8.08,0,13.96,2.34,17.64,7.02,3.68,4.68,5.52,11.62,5.52,20.82v33.6h-11.76v-32.4c0-6.56-1.18-11.42-3.54-14.58-2.36-3.16-5.98-4.74-10.86-4.74-5.44,0-9.4,1.64-11.88,4.92-2.48,3.28-3.72,8.28-3.72,15v31.8h-11.52v-47.52Z"/>
        <path class="cls-1" d="M345.91,30.4h43.32v10.08h-43.32v-10.08ZM359.11,79.36V31.36c0-6.32.82-11.32,2.46-15,1.64-3.68,4.12-6.32,7.44-7.92,3.32-1.6,7.62-2.4,12.9-2.4h6.24v9.72h-5.76c-3.12,0-5.52.52-7.2,1.56-1.68,1.04-2.84,2.54-3.48,4.5-.64,1.96-.96,4.58-.96,7.86v60.36h-11.64v-10.68Z"/>
        <path class="cls-1" d="M397.95,29.56h8.44l.28,6.72c1.52-3.44,4-4.75,7.63-5.88,3.23-1.01,7.73-1.44,12.37-1.44h3.24v12h-3.84c-4.64,0-8.14.56-10.5,1.68-2.36,1.12-4.02,3.08-4.98,5.88-.96,2.8-1.44,6.84-1.44,12.12v29.4h-11.4v-46.68"/>
        <path class="cls-1" d="M444.67,87.04c-4.24-2.64-7.46-6.32-9.66-11.04-2.2-4.72-3.3-10.2-3.3-16.44s1.1-11.36,3.3-16.08c2.2-4.72,5.42-8.38,9.66-10.98,4.24-2.6,9.24-3.9,15-3.9s10.3,1.2,14.34,3.6c4.04,2.4,7.12,5.92,9.24,10.56,2.12,4.64,3.18,10.24,3.18,16.8,0,1.28-.08,2.88-.24,4.8-.4,5.68-1.76,10.5-4.08,14.46-2.32,3.96-5.36,6.98-9.12,9.06-3.76,2.08-8.2,3.12-13.32,3.12-5.76,0-10.76-1.32-15-3.96ZM475.69,75.58c3.32-3.8,4.98-9.14,4.98-16.02s-1.66-11.84-4.98-15.6c-3.32-3.76-7.86-5.64-13.62-5.64s-10.3,1.88-13.62,5.64c-3.32,3.76-4.98,8.96-4.98,15.6,0,4.56.76,8.46,2.28,11.7,1.52,3.24,3.66,5.72,6.42,7.44,2.76,1.72,6.06,2.58,9.9,2.58,5.76,0,10.3-1.9,13.62-5.7ZM481.67,76.12v-32.88l.04-13.68h10.6v47.4l-.2,13.08h-9.68l-.76-13.92Z"/>
        <path class="cls-1" d="M506.91,29.56h9.44l-.05,6.94c1.91-3.46,3.87-4.63,6.99-5.96s7.7-1.58,12.34-1.58h3.24v12h-3.84c-4.64,0-8.14.56-10.5,1.68-2.36,1.12-4.02,3.08-4.98,5.88-.96,2.8-1.44,6.84-1.44,12.12v29.4h-11.4v-46.68"/>
        <path class="cls-1" d="M547.74,16.3c-1.36-1.32-2.04-3.18-2.04-5.58,0-2.16.7-3.88,2.1-5.16,1.4-1.28,3.38-1.92,5.94-1.92s4.4.64,5.76,1.92c1.36,1.28,2.04,3,2.04,5.16,0,2.4-.68,4.26-2.04,5.58-1.36,1.32-3.32,1.98-5.88,1.98s-4.52-.66-5.88-1.98ZM547.74,79.6V29.56h11.64v60.48h-11.64v-10.44Z"/>
        <path class="cls-1" d="M582.54,87.04c-4.24-2.64-7.46-6.32-9.66-11.04-2.2-4.72-3.3-10.2-3.3-16.44s1.1-11.36,3.3-16.08c2.2-4.72,5.42-8.38,9.66-10.98,4.24-2.6,9.24-3.9,15-3.9s10.3,1.2,14.34,3.6c4.04,2.4,7.12,5.92,9.24,10.56,2.12,4.64,3.18,10.24,3.18,16.8,0,1.28-.08,2.88-.24,4.8-.4,5.68-1.76,10.5-4.08,14.46-2.32,3.96-5.36,6.98-9.12,9.06-3.76,2.08-8.2,3.12-13.32,3.12-5.76,0-10.76-1.32-15-3.96ZM613.56,75.58c3.32-3.8,4.98-9.14,4.98-16.02s-1.66-11.84-4.98-15.6c-3.32-3.76-7.86-5.64-13.62-5.64s-10.3,1.88-13.62,5.64c-3.32,3.76-4.98,8.96-4.98,15.6,0,4.56.76,8.46,2.28,11.7,1.52,3.24,3.66,5.72,6.42,7.44,2.76,1.72,6.06,2.58,9.9,2.58,5.76,0,10.3-1.9,13.62-5.7ZM619.54,76.12v-32.88l.04-13.68h10.6v47.4l-.2,13.08h-9.68l-.76-13.92Z"/>
        <path class="cls-1" d="M646.39,88.78c-1.45-1.48-2.17-3.49-2.17-6.04s.72-4.42,2.17-5.84c1.45-1.41,3.44-2.12,5.99-2.12s4.51.71,5.89,2.12c1.38,1.41,2.07,3.36,2.07,5.84s-.69,4.56-2.07,6.04c-1.38,1.48-3.34,2.22-5.89,2.22s-4.55-.74-5.99-2.22Z"/>
        <path class="cls-1" d="M659.06,29.56h46.56v9.96h-46.56v-9.96ZM684.02,87.52c-3.36-1.68-5.88-4.4-7.56-8.16-1.68-3.76-2.52-8.76-2.52-15v-31.68l-.12-21.84h11.76v54.24c0,3.44.34,6.22,1.02,8.34.68,2.12,1.92,3.7,3.72,4.74,1.8,1.04,4.38,1.56,7.74,1.56h9.6v10.32h-10.44c-5.44,0-9.84-.84-13.2-2.52Z"/>
        <path class="cls-1" d="M724.16,87.04c-4.68-2.64-8.26-6.3-10.74-10.98-2.48-4.68-3.72-10.06-3.72-16.14s1.22-11.72,3.66-16.44c2.44-4.72,6-8.38,10.68-10.98,4.68-2.6,10.18-3.9,16.5-3.9s11.74,1.22,16.26,3.66c4.52,2.44,8,5.86,10.44,10.26,2.44,4.4,3.7,9.6,3.78,15.6v1.32c0,.48-.02.96-.06,1.44-.04.48-.1.96-.18,1.44h-55.56l.48-8.52h46.92l-4.2,5.28c.24-4.56-.3-8.44-1.62-11.64-1.32-3.2-3.36-5.64-6.12-7.32-2.76-1.68-6.22-2.52-10.38-2.52s-7.76.98-10.56,2.94c-2.8,1.96-4.88,4.56-6.24,7.8-1.36,3.24-2.04,6.94-2.04,11.1,0,4.48.78,8.38,2.34,11.7,1.56,3.32,3.8,5.9,6.72,7.74,2.92,1.84,6.46,2.76,10.62,2.76,4.64,0,8.5-.96,11.58-2.88,3.08-1.92,5.1-4.36,6.06-7.32h11.64c-1.68,6.24-5.08,11.06-10.2,14.46-5.12,3.4-11.56,5.1-19.32,5.1-6.48,0-12.06-1.32-16.74-3.96Z"/>
        <path class="cls-1" d="M791.24,86.98c-4.68-2.68-8.26-6.38-10.74-11.1-2.48-4.72-3.72-10.16-3.72-16.32s1.24-11.34,3.72-16.02c2.48-4.68,6.06-8.34,10.74-10.98s10.22-3.96,16.62-3.96c5.44,0,10.26.98,14.46,2.94,4.2,1.96,7.62,4.7,10.26,8.22,2.64,3.52,4.44,7.64,5.4,12.36h-11.76c-1.28-4.4-3.48-7.8-6.6-10.2s-7.04-3.6-11.76-3.6c-6,0-10.72,1.88-14.16,5.64-3.44,3.76-5.16,8.96-5.16,15.6,0,4.56.78,8.46,2.34,11.7,1.56,3.24,3.8,5.72,6.72,7.44,2.92,1.72,6.34,2.58,10.26,2.58,4.8,0,8.78-1.22,11.94-3.66,3.16-2.44,5.3-5.86,6.42-10.26h12c-1.44,7.2-4.8,12.94-10.08,17.22-5.28,4.28-12.04,6.42-20.28,6.42-6.4,0-11.94-1.34-16.62-4.02Z"/>
        <path class="cls-1" d="M846.86,4.24h11.64v36.28l-1.92-3.16c1.92-4,3.62-4.96,7.1-6.88,3.48-1.92,8.62-1.88,13.42-1.88,8.08,0,13.94,2.34,17.58,7.02,3.64,4.68,5.46,11.62,5.46,20.82v33.6h-11.52v-32.4c0-6.56-1.2-11.42-3.6-14.58-2.4-3.16-6.08-4.74-11.04-4.74-5.36,0-9.28,1.62-11.76,4.86-2.48,3.24-3.72,8.18-3.72,14.82v32.04h-11.64V4.24Z"/>
      </g>
      <g>
        <polygon class="cls-1" points="63.49 56.32 34.07 107.28 46.45 107.28 66.58 72.41 66.58 72.41 66.58 72.41 86.71 107.28 66.58 72.41 66.58 72.41 86.71 107.28 92.9 107.28 96 101.91 75.87 67.05 75.87 67.05 75.87 67.05 116.13 67.05 122.32 56.32 63.49 56.32"/>
        <polygon class="cls-1" points="29.42 2.68 23.23 13.41 43.35 48.27 43.35 48.27 43.35 48.27 3.1 48.27 43.35 48.27 43.35 48.27 3.1 48.27 0 53.64 3.1 59 43.35 59 43.35 59 43.35 59 23.23 93.87 29.42 104.59 58.84 53.64 29.42 2.68"/>
        <polygon class="cls-1" points="116.13 40.23 75.87 40.23 75.87 40.23 75.87 40.23 96 5.36 92.9 0 86.71 0 66.58 34.86 46.45 0 34.07 0 63.48 50.95 122.32 50.96 116.13 40.23"/>
      </g>
    </g>
  </g>
</svg>