<svg width="300" height="120" viewBox="0 0 300 120" fill="none" xmlns="http://www.w3.org/2000/svg">
<path d="M145.573 76.9189C143.922 78.4906 142.008 79.8005 139.829 80.7173C137.716 81.6341 135.339 82.0925 132.83 82.0925C131.51 82.0925 130.255 81.9618 129.068 81.7C127.879 81.4381 126.691 81.045 125.568 80.5866C124.446 80.0629 123.39 79.4733 122.399 78.8184C121.409 78.0975 120.484 77.312 119.692 76.4605L150.92 64.4763L164.191 59.3682C163.465 54.784 161.814 50.4617 159.306 46.7288C153.628 38.2153 143.856 32.6489 132.83 32.6489C115.335 32.6489 101.074 46.7945 101.074 64.1486C101.074 65.7862 101.206 67.3579 101.47 68.9296C102.197 73.5136 103.847 77.8363 106.356 81.5688C107.808 83.6642 109.459 85.629 111.373 87.3319C113.288 89.0349 115.335 90.5407 117.646 91.7853C119.89 93.0292 122.333 94.0119 124.908 94.6663C127.483 95.3212 130.124 95.649 132.897 95.649C137.254 95.649 141.48 94.7975 145.243 93.1605C149.072 91.5887 152.439 89.2308 155.344 86.4151C158.249 83.5336 160.56 80.1936 162.145 76.3952C162.804 74.8235 163.333 73.1205 163.729 71.4182H149.336C148.478 73.5136 147.223 75.3472 145.573 76.9189ZM132.897 46.1394C138.046 46.1394 142.734 48.3663 146.035 51.7715L114.807 63.7561C115.004 54.0635 123.059 46.1394 132.897 46.1394Z" fill="white"/>
<path d="M88.1071 69.397L88.041 0H74.2285L74.2947 69.0674C74.2947 83.646 84.076 94.0028 98.351 95.058V81.4689C92.3374 80.4795 88.1071 75.7299 88.1071 69.397Z" fill="white"/>
<path d="M87.9548 69.5272L87.8886 0.130127H74.0762L74.1423 69.1976C74.1423 83.7761 83.9237 94.1329 98.1987 95.1882V81.599C92.185 80.6097 87.9548 75.86 87.9548 69.5272Z" fill="white"/>
<path d="M234.192 63.0323C233.522 46.2671 219.378 32.7766 202.017 32.7766C184.253 32.7766 169.774 46.9222 169.774 64.2762C169.774 81.6303 184.253 95.7766 202.017 95.7766C208.854 95.7766 215.222 93.6806 220.45 90.0788V95.187H234.326L234.192 63.1629V63.0323ZM202.017 82.2861C191.895 82.2861 183.65 74.2309 183.65 64.3422C183.65 54.4534 191.895 46.3983 202.017 46.3983C212.139 46.3983 220.384 54.4532 220.384 64.3422C220.384 74.2311 212.139 82.2861 202.017 82.2861Z" fill="white"/>
<path d="M270.376 32.4187C254.015 32.4187 240.752 45.6322 240.752 61.9321V95.3513H254.835V61.9099C254.835 53.4338 261.732 46.5625 270.24 46.5625H270.512C279.02 46.5625 285.917 53.4338 285.917 61.9099V95.3513H300V61.9321C300 45.6322 286.737 32.4187 270.376 32.4187Z" fill="white"/>
<path d="M77.6465 96.3425C76.7119 97.6666 75.7169 98.9547 74.667 100.188C73.6168 101.428 72.5175 102.614 71.3643 103.757C70.217 104.899 69.0151 105.988 67.7646 107.028C66.5204 108.068 65.2279 109.048 63.8926 109.973C62.5632 110.905 61.1905 111.775 59.7822 112.586C58.3802 113.39 56.9358 114.134 55.4609 114.817C53.9921 115.5 52.4927 116.117 50.957 116.668C49.4397 117.224 47.8857 117.708 46.3076 118.119C44.7477 118.536 43.1631 118.888 41.5547 119.166C39.9643 119.444 38.3555 119.656 36.7227 119.789C35.1202 119.928 33.4993 120 31.8604 120C30.2214 120 28.6005 119.928 26.998 119.789C25.3652 119.656 23.7503 119.444 22.166 119.166C20.5577 118.888 18.9678 118.536 17.4141 118.119L20.9893 104.827C22.1607 105.147 23.3566 105.407 24.5645 105.613C25.7602 105.825 26.9741 105.982 28.2002 106.085C29.4081 106.188 30.6281 106.242 31.8604 106.242C33.0926 106.242 34.3126 106.188 35.5205 106.085C36.7465 105.982 37.9605 105.825 39.1562 105.613C40.3641 105.407 41.56 105.147 42.7314 104.827C43.9212 104.518 45.0871 104.155 46.2344 103.738C47.3876 103.327 48.5165 102.861 49.6211 102.347C50.7319 101.833 51.8189 101.278 52.875 100.667C53.9373 100.062 54.975 99.4023 55.9766 98.7068C56.9842 98.0114 57.9558 97.274 58.8906 96.4939C59.8315 95.7138 60.7355 94.8907 61.6035 94.032C62.4715 93.1673 63.3037 92.2787 64.0928 91.3474C64.8819 90.4161 65.6348 89.4487 66.3389 88.4509L77.6465 96.3425ZM65.2725 32.4177L56.3115 43.8435C60.9364 49.3532 63.7216 56.448 63.7217 64.1921C63.7217 81.7228 49.4575 95.9341 31.8613 95.9343C14.265 95.9343 0 81.7228 0 64.1921C0.000248702 46.6617 14.2651 32.4509 31.8613 32.4509C36.6606 32.451 41.2112 33.5097 45.293 35.4031L54.3203 23.8933L65.2725 32.4177ZM31.8613 46.0828C21.8224 46.0828 13.6838 54.1908 13.6836 64.1921C13.6836 74.1937 21.8223 82.3025 31.8613 82.3025C41.9002 82.3023 50.0381 74.1936 50.0381 64.1921C50.0378 54.1909 41.9001 46.0829 31.8613 46.0828Z" fill="white"/>
</svg>
