<svg id="Layer_1" data-name="Layer 1" xmlns="http://www.w3.org/2000/svg" viewBox="0 0 169.22 21.77"><defs><style>.cls-1,.cls-2{fill:#0099ff;}.cls-1{fill-rule:evenodd;}</style></defs><title>RM-logo</title><path id="path-1" class="cls-1" d="M10.31,6.79l8.44,4.91v3.67l-8.44-4.9a1.84,1.84,0,0,0-1.87,0L0,15.37V11.7L8.44,6.79A1.84,1.84,0,0,1,10.31,6.79ZM1.38,17.42l7-4.07a2,2,0,0,1,2,0l7,4.07-7,4.08a2,2,0,0,1-2,0ZM10.31.25l8.44,4.91V8.83l-8.44-4.9a1.84,1.84,0,0,0-1.87,0L0,8.83V5.16L8.44.25A1.89,1.89,0,0,1,10.31.25Z"/><path class="cls-2" d="M25.45,4a.43.43,0,0,1,.43-.42h4.6a9.24,9.24,0,0,1,2,.21,5.14,5.14,0,0,1,1.71.71,3.55,3.55,0,0,1,1.2,1.29,3.87,3.87,0,0,1,.45,1.94,3.69,3.69,0,0,1-.89,2.56A4.23,4.23,0,0,1,33,11.44a.44.44,0,0,0-.25.63L36,17.36a.43.43,0,0,1-.36.65H33.51a.43.43,0,0,1-.37-.22L30,12.1a.41.41,0,0,0-.37-.22h-1.2a.42.42,0,0,0-.43.42v5.28a.43.43,0,0,1-.43.43H25.88a.43.43,0,0,1-.43-.43Zm4.68,5.81a8.29,8.29,0,0,0,1.11-.08,3,3,0,0,0,1-.31A1.92,1.92,0,0,0,33,8.74a1.8,1.8,0,0,0,.29-1.07,1.68,1.68,0,0,0-.26-1,2,2,0,0,0-.68-.61,2.68,2.68,0,0,0-.93-.3,5.92,5.92,0,0,0-1-.09H28V9.77Z"/><path class="cls-2" d="M46.89,13.23a.8.8,0,0,1-.16.51.81.81,0,0,1-.47.14H39.41a2.43,2.43,0,0,0,.28,1,2.66,2.66,0,0,0,.62.76,3.3,3.3,0,0,0,.88.5,3,3,0,0,0,1,.18A3.24,3.24,0,0,0,43.77,16a2.63,2.63,0,0,0,.77-.6.44.44,0,0,1,.6-.06l1,.77a.42.42,0,0,1,.07.61,5,5,0,0,1-3.94,1.62,6.17,6.17,0,0,1-2.1-.35,5,5,0,0,1-1.67-1,4.44,4.44,0,0,1-1.1-1.6,5.44,5.44,0,0,1-.4-2.16,5.49,5.49,0,0,1,.4-2.15,4.89,4.89,0,0,1,1.09-1.66A5,5,0,0,1,40.1,8.29a5.54,5.54,0,0,1,2-.38A5.08,5.08,0,0,1,44,8.25a4,4,0,0,1,1.5,1,4.43,4.43,0,0,1,1,1.66A6.77,6.77,0,0,1,46.89,13.23Zm-2.45-1.11a3,3,0,0,0-.13-.9,2.05,2.05,0,0,0-.42-.75,2,2,0,0,0-.73-.53,2.67,2.67,0,0,0-1-.19,2.73,2.73,0,0,0-1.87.67,2.44,2.44,0,0,0-.85,1.7Z"/><path class="cls-2" d="M60.56,7.91a3.65,3.65,0,0,1,1.65.34,3.18,3.18,0,0,1,1.12.89A3.6,3.6,0,0,1,64,10.4a5.62,5.62,0,0,1,.2,1.48v5.7a.42.42,0,0,1-.42.43H62.15a.42.42,0,0,1-.42-.43v-5a7.28,7.28,0,0,0-.06-.9,2.42,2.42,0,0,0-.27-.85,1.67,1.67,0,0,0-.56-.62,1.69,1.69,0,0,0-1-.24,1.9,1.9,0,0,0-1,.24,2.28,2.28,0,0,0-.68.63,2.84,2.84,0,0,0-.38.87,3.51,3.51,0,0,0-.13,1v4.93a.42.42,0,0,1-.42.43H55.7a.43.43,0,0,1-.43-.43v-5.5a2.53,2.53,0,0,0-.44-1.52,1.59,1.59,0,0,0-1.38-.6,1.85,1.85,0,0,0-1,.23,2.12,2.12,0,0,0-.66.6,2.88,2.88,0,0,0-.39.85,3.6,3.6,0,0,0-.13,1v5a.43.43,0,0,1-.43.43h-1.6a.43.43,0,0,1-.43-.43v-9a.42.42,0,0,1,.43-.42h1.48a.42.42,0,0,1,.42.42V9.77h0a3,3,0,0,1,.44-.69,3.8,3.8,0,0,1,.66-.6,3.52,3.52,0,0,1,.87-.42,3.61,3.61,0,0,1,1.08-.15,3.32,3.32,0,0,1,1.9.51,3.38,3.38,0,0,1,1.16,1.35,3.56,3.56,0,0,1,1.31-1.38A3.75,3.75,0,0,1,60.56,7.91Z"/><path class="cls-2" d="M76,13.23a.62.62,0,0,1-.17.5.54.54,0,0,1-.41.15h-6.9a2.43,2.43,0,0,0,.28,1,2.66,2.66,0,0,0,.62.76,3.3,3.3,0,0,0,.88.5,3,3,0,0,0,1,.18A3.24,3.24,0,0,0,72.87,16a2.81,2.81,0,0,0,.78-.6.43.43,0,0,1,.59-.06l1,.77a.42.42,0,0,1,.07.61,5,5,0,0,1-3.94,1.62,6.17,6.17,0,0,1-2.1-.35,5,5,0,0,1-1.67-1,4.57,4.57,0,0,1-1.1-1.6,5.44,5.44,0,0,1-.4-2.16,5.49,5.49,0,0,1,.4-2.15,5,5,0,0,1,1.09-1.66A5,5,0,0,1,69.2,8.29a5.54,5.54,0,0,1,2-.38,5.08,5.08,0,0,1,1.89.34,4,4,0,0,1,1.5,1,4.58,4.58,0,0,1,1,1.66A7,7,0,0,1,76,13.23Zm-2.45-1.11a3,3,0,0,0-.13-.9,2.05,2.05,0,0,0-.42-.75,2,2,0,0,0-.73-.53,2.67,2.67,0,0,0-1-.19,2.73,2.73,0,0,0-1.87.67,2.44,2.44,0,0,0-.85,1.7Z"/><path class="cls-2" d="M83.36,10.68c-.14,0-.25-.12-.38-.24a3.3,3.3,0,0,0-.55-.37,2.55,2.55,0,0,0-1.25-.32A2.32,2.32,0,0,0,80.1,10a.83.83,0,0,0-.49.81.82.82,0,0,0,.54.81,9.17,9.17,0,0,0,1.59.48,8.19,8.19,0,0,1,1.11.33,3.69,3.69,0,0,1,1,.54,2.53,2.53,0,0,1,.75.84A2.41,2.41,0,0,1,84.9,15a3.26,3.26,0,0,1-.33,1.53,3,3,0,0,1-.9,1,3.88,3.88,0,0,1-1.31.56,7.13,7.13,0,0,1-1.54.17,6.09,6.09,0,0,1-2.23-.42A4.84,4.84,0,0,1,77.11,17a.42.42,0,0,1,0-.62l1-.91a.43.43,0,0,1,.6,0,3.54,3.54,0,0,0,.78.56,3,3,0,0,0,1.45.34,2.48,2.48,0,0,0,.54-.06,1.84,1.84,0,0,0,.51-.19,1.09,1.09,0,0,0,.38-.36,1,1,0,0,0,.14-.55.91.91,0,0,0-.56-.88,9,9,0,0,0-1.69-.53,8.2,8.2,0,0,1-1.07-.32,3.47,3.47,0,0,1-.93-.51,2.28,2.28,0,0,1-.65-.79A2.4,2.4,0,0,1,77.34,11a2.73,2.73,0,0,1,.34-1.41,2.77,2.77,0,0,1,.89-1,4,4,0,0,1,1.25-.56,5.25,5.25,0,0,1,1.43-.19,5.91,5.91,0,0,1,2.07.37,3.8,3.8,0,0,1,1.32.8.42.42,0,0,1,0,.61l-.91.8S83.51,10.68,83.36,10.68Z"/><path class="cls-2" d="M92,10.65c-.15,0-.2-.06-.31-.17a3.24,3.24,0,0,0-.59-.41,2.58,2.58,0,0,0-1.25-.32,2.26,2.26,0,0,0-1.08.25.83.83,0,0,0-.49.81.82.82,0,0,0,.54.81,9.3,9.3,0,0,0,1.58.48,7.78,7.78,0,0,1,1.11.33,3.75,3.75,0,0,1,1,.54,2.61,2.61,0,0,1,.74.84A2.41,2.41,0,0,1,93.57,15a3.15,3.15,0,0,1-.34,1.53,2.82,2.82,0,0,1-.9,1,3.79,3.79,0,0,1-1.31.56,7.06,7.06,0,0,1-1.54.17,6.17,6.17,0,0,1-2.23-.42A4.84,4.84,0,0,1,85.77,17a.42.42,0,0,1,0-.62l1-.91a.44.44,0,0,1,.61,0,3.72,3.72,0,0,0,.77.56,3.07,3.07,0,0,0,1.45.34,2.48,2.48,0,0,0,.54-.06,1.79,1.79,0,0,0,.52-.19,1.06,1.06,0,0,0,.37-.36,1,1,0,0,0,.15-.55.91.91,0,0,0-.57-.88,8.86,8.86,0,0,0-1.68-.53,7.37,7.37,0,0,1-1.07-.32,3.47,3.47,0,0,1-.93-.51,2.2,2.2,0,0,1-.66-.79A2.52,2.52,0,0,1,86,11a2.83,2.83,0,0,1,.33-1.41,2.86,2.86,0,0,1,.89-1,4.05,4.05,0,0,1,1.25-.56,5.25,5.25,0,0,1,1.43-.19A5.87,5.87,0,0,1,92,8.28a3.71,3.71,0,0,1,1.32.8.43.43,0,0,1,0,.61l-1,.84A.62.62,0,0,1,92,10.65Z"/><path class="cls-2" d="M101.37,16.76h-.06a2.7,2.7,0,0,1-1.18,1.07,4,4,0,0,1-1.86.42A5.45,5.45,0,0,1,97,18.1a3.55,3.55,0,0,1-1.18-.51,3,3,0,0,1-.9-.94,2.7,2.7,0,0,1-.36-1.44,2.47,2.47,0,0,1,.62-1.76,4,4,0,0,1,1.61-1A8.86,8.86,0,0,1,99,12c.8-.08,1.58-.11,2.34-.11v-.25a1.52,1.52,0,0,0-.66-1.36,2.82,2.82,0,0,0-1.58-.44,3.56,3.56,0,0,0-1.5.33,4.76,4.76,0,0,0-.86.51.43.43,0,0,1-.6,0l-.71-.84a.42.42,0,0,1,0-.6,5.57,5.57,0,0,1,1.6-.89,6.57,6.57,0,0,1,2.22-.39,5.4,5.4,0,0,1,2.16.37,3.39,3.39,0,0,1,2,2.29,5.7,5.7,0,0,1,.19,1.47v5.54a.42.42,0,0,1-.42.43h-1.87Zm0-3.23h-.55c-.39,0-.81,0-1.25.05a5.55,5.55,0,0,0-1.2.23,2.45,2.45,0,0,0-.92.49,1.2,1.2,0,0,0-.22,1.45,1.32,1.32,0,0,0,.4.38,2,2,0,0,0,.56.2,3.08,3.08,0,0,0,.61.06,2.56,2.56,0,0,0,1.92-.67,2.51,2.51,0,0,0,.65-1.84Z"/><path class="cls-2" d="M109.24,10.73a8,8,0,0,1,.59-3.13,6.77,6.77,0,0,1,1.61-2.39,7.37,7.37,0,0,1,2.45-1.51,8.89,8.89,0,0,1,3.1-.53,9.06,9.06,0,0,1,3.13.53,7.46,7.46,0,0,1,2.47,1.51,6.93,6.93,0,0,1,1.62,2.39,8,8,0,0,1,.59,3.13,8,8,0,0,1-.59,3.1,7.31,7.31,0,0,1-1.62,2.41,7.44,7.44,0,0,1-2.47,1.57,8.42,8.42,0,0,1-3.13.57,8.26,8.26,0,0,1-3.1-.57,7.36,7.36,0,0,1-2.45-1.57,7.13,7.13,0,0,1-1.61-2.41A8,8,0,0,1,109.24,10.73Zm2.8,0a6.12,6.12,0,0,0,.36,2.14,4.92,4.92,0,0,0,1,1.68A4.69,4.69,0,0,0,115,15.67a5,5,0,0,0,2,.4,5.13,5.13,0,0,0,2-.4,4.73,4.73,0,0,0,1.59-1.12,4.92,4.92,0,0,0,1-1.68,6.12,6.12,0,0,0,.36-2.14,5.86,5.86,0,0,0-.36-2.08,5.27,5.27,0,0,0-1-1.68,4.59,4.59,0,0,0-1.58-1.12,5,5,0,0,0-2-.41,4.91,4.91,0,0,0-2,.41A4.65,4.65,0,0,0,113.41,7a5.27,5.27,0,0,0-1,1.68A5.86,5.86,0,0,0,112,10.73Z"/><path class="cls-2" d="M127.18,8.2h1.48a.42.42,0,0,1,.43.42V9.77h0a3.2,3.2,0,0,1,1.13-1.3,3.31,3.31,0,0,1,1.91-.56,3.65,3.65,0,0,1,1.65.34,3.18,3.18,0,0,1,1.12.89,3.6,3.6,0,0,1,.65,1.26,5.62,5.62,0,0,1,.2,1.48v5.7a.43.43,0,0,1-.43.43h-1.6a.42.42,0,0,1-.42-.43v-5a7.28,7.28,0,0,0-.06-.9,2.42,2.42,0,0,0-.27-.85,1.75,1.75,0,0,0-.56-.62,1.69,1.69,0,0,0-.95-.24,2,2,0,0,0-1,.23,2.32,2.32,0,0,0-.71.6,2.93,2.93,0,0,0-.42.85,3.61,3.61,0,0,0-.14,1v5a.43.43,0,0,1-.43.43h-1.6a.42.42,0,0,1-.42-.43v-9A.42.42,0,0,1,127.18,8.2Z"/><path class="cls-2" d="M138.71,2.56h1.6a.43.43,0,0,1,.43.42v14.6a.43.43,0,0,1-.43.43h-1.6a.43.43,0,0,1-.43-.43V3A.42.42,0,0,1,138.71,2.56Z"/><path class="cls-2" d="M143,4.87a1.45,1.45,0,0,1,.44-1,1.55,1.55,0,0,1,1.12-.44,1.61,1.61,0,0,1,1.13.42,1.36,1.36,0,0,1,.46,1.06,1.35,1.35,0,0,1-.46,1,1.61,1.61,0,0,1-1.13.42,1.55,1.55,0,0,1-1.12-.44A1.42,1.42,0,0,1,143,4.87Zm.78,3.33h1.6a.42.42,0,0,1,.42.42v9a.42.42,0,0,1-.42.43h-1.6a.43.43,0,0,1-.43-.43v-9A.42.42,0,0,1,143.78,8.2Z"/><path class="cls-2" d="M148.8,8.2h1.48a.42.42,0,0,1,.43.42V9.77h0a3.2,3.2,0,0,1,1.13-1.3,3.31,3.31,0,0,1,1.91-.56,3.65,3.65,0,0,1,1.65.34,3.18,3.18,0,0,1,1.12.89,3.6,3.6,0,0,1,.65,1.26,5.62,5.62,0,0,1,.2,1.48v5.7A.43.43,0,0,1,157,18h-1.6a.42.42,0,0,1-.42-.43v-5a7.28,7.28,0,0,0-.06-.9,2.42,2.42,0,0,0-.27-.85,1.75,1.75,0,0,0-.56-.62,1.69,1.69,0,0,0-.95-.24,2,2,0,0,0-1,.23,2.32,2.32,0,0,0-.71.6,2.93,2.93,0,0,0-.42.85,3.61,3.61,0,0,0-.14,1v5a.43.43,0,0,1-.43.43h-1.6a.42.42,0,0,1-.42-.43v-9A.42.42,0,0,1,148.8,8.2Z"/><path class="cls-2" d="M169.22,13.23a.73.73,0,0,1-.17.47.86.86,0,0,1-.46.18h-6.85a2.43,2.43,0,0,0,.28,1,2.66,2.66,0,0,0,.62.76,3.3,3.3,0,0,0,.88.5,3,3,0,0,0,1,.18A3.24,3.24,0,0,0,166.1,16a2.77,2.77,0,0,0,.77-.59.43.43,0,0,1,.6-.07l1,.77a.42.42,0,0,1,.07.61,5,5,0,0,1-3.94,1.62,6.17,6.17,0,0,1-2.1-.35,5,5,0,0,1-1.67-1,4.44,4.44,0,0,1-1.1-1.6,5.44,5.44,0,0,1-.4-2.16,5.49,5.49,0,0,1,.4-2.15,4.89,4.89,0,0,1,1.09-1.66,5,5,0,0,1,1.65-1.06,5.54,5.54,0,0,1,2-.38,5.08,5.08,0,0,1,1.89.34,4,4,0,0,1,1.5,1,4.43,4.43,0,0,1,1,1.66A6.77,6.77,0,0,1,169.22,13.23Zm-2.45-1.11a3,3,0,0,0-.13-.9,2.05,2.05,0,0,0-.42-.75,2,2,0,0,0-.73-.53,2.67,2.67,0,0,0-1-.19,2.73,2.73,0,0,0-1.87.67,2.44,2.44,0,0,0-.85,1.7Z"/></svg>