<svg xmlns="http://www.w3.org/2000/svg" width="97.127" height="84" viewBox="0 0 97.127 84">
  <g transform="translate(0 134.056)">
    <path d="M11.022-17.44a7.808,7.808,0,0,0-3.883-1.336l-1.631-.169a3.4,3.4,0,0,1-1.9-.649,1.713,1.713,0,0,1-.578-1.347,2.007,2.007,0,0,1,.813-1.631,3.79,3.79,0,0,1,2.389-.649,3.8,3.8,0,0,1,2.378.633,1.968,1.968,0,0,1,.829,1.533h2.531A3.992,3.992,0,0,0,10.34-24.4a6.94,6.94,0,0,0-4.107-1.124,7.619,7.619,0,0,0-2.983.545,4.607,4.607,0,0,0-2.023,1.576A4.139,4.139,0,0,0,.5-20.947,3.546,3.546,0,0,0,1.843-17.98,6.694,6.694,0,0,0,5.328-16.7l1.631.169a4.833,4.833,0,0,1,2.28.687,1.693,1.693,0,0,1,.7,1.445,2.125,2.125,0,0,1-.954,1.756,4.516,4.516,0,0,1-2.754.72A4.091,4.091,0,0,1,3.409-12.7a2.5,2.5,0,0,1-.889-1.647H0a4.3,4.3,0,0,0,1.674,3.458,7.256,7.256,0,0,0,4.57,1.265,8.125,8.125,0,0,0,3.234-.605,5.271,5.271,0,0,0,2.209-1.685,4.061,4.061,0,0,0,.8-2.487,3.578,3.578,0,0,0-1.462-3.054" transform="translate(0 -40.524)" fill="#fffeff"/>
    <path d="M32.9-24.53a10.909,10.909,0,0,0-3.769-.545c-.453,0-.916,0-1.407.016s-.96.027-1.418.055-.894.06-1.309.1v2.362c.415-.038.9-.065,1.462-.087s1.151-.038,1.772-.055,1.216-.027,1.8-.027a3.206,3.206,0,0,1,2.345.785,3.131,3.131,0,0,1,.8,2.334v.365h-3.8a9.077,9.077,0,0,0-3.316.545,4.373,4.373,0,0,0-2.094,1.62,4.684,4.684,0,0,0-.72,2.672,4.932,4.932,0,0,0,.66,2.645A4.3,4.3,0,0,0,25.8-10.072a6.815,6.815,0,0,0,2.912.578,5.969,5.969,0,0,0,2.689-.562A4.164,4.164,0,0,0,33.144-11.7a5.159,5.159,0,0,0,.491-1.156v2.972h2.138v-9.5a6.793,6.793,0,0,0-.7-3.349A4.035,4.035,0,0,0,32.9-24.525M32.55-13.17A3.172,3.172,0,0,1,31.1-11.992a4.824,4.824,0,0,1-1.827.354,3.693,3.693,0,0,1-2.5-.758,2.515,2.515,0,0,1-.873-2,2.6,2.6,0,0,1,.873-2.023,3.625,3.625,0,0,1,2.5-.785h3.91v1.745a4.277,4.277,0,0,1-.633,2.291" transform="translate(-8.684 -40.693)" fill="#fffeff"/>
    <path d="M51.42-29.367a2.162,2.162,0,0,1,.562-1.587,2.153,2.153,0,0,1,1.6-.578h2.307v-2.247H54.038A5.671,5.671,0,0,0,50.155-32.6a4.689,4.689,0,0,0-1.32,3.681v.927H46.757v2.023h2.078v12.822H51.42V-25.97h4.756v-2.023H51.42v-1.38Z" transform="translate(-17.459 -37.443)" fill="#fffeff"/>
    <path d="M75.01-24.563a7.15,7.15,0,0,0-4.036-1.053,7.578,7.578,0,0,0-3.278.66,6.47,6.47,0,0,0-2.291,1.773A7.52,7.52,0,0,0,64.07-20.7a9.4,9.4,0,0,0-.436,2.841v.507a9.355,9.355,0,0,0,.436,2.814,7.467,7.467,0,0,0,1.336,2.487,6.557,6.557,0,0,0,2.334,1.789,7.877,7.877,0,0,0,3.4.676,8.178,8.178,0,0,0,3.18-.589,6,6,0,0,0,2.334-1.713A5.928,5.928,0,0,0,77.9-14.555H75.365a3.063,3.063,0,0,1-1.336,1.827,4.883,4.883,0,0,1-2.88.785,4.728,4.728,0,0,1-2.781-.747,4.407,4.407,0,0,1-1.62-2.023,7.436,7.436,0,0,1-.507-2.378H78.152V-18.3a8.265,8.265,0,0,0-.774-3.545,6.548,6.548,0,0,0-2.362-2.716m-6.7,2.04a4.568,4.568,0,0,1,2.656-.731,4.572,4.572,0,0,1,2.558.649,3.994,3.994,0,0,1,1.522,1.816,6.178,6.178,0,0,1,.442,1.674H66.35a6.676,6.676,0,0,1,.4-1.407,4.394,4.394,0,0,1,1.576-2" transform="translate(-23.761 -40.491)" fill="#fffeff"/>
    <path d="M89.51-25.215v2.929h2.132V-9.944h3.91V-25.215Z" transform="translate(-33.423 -40.641)" fill="#fffeff"/>
    <path d="M93.863-30.663a2.132,2.132,0,0,0,1.685-.605,2.242,2.242,0,0,0,.535-1.533,2.2,2.2,0,0,0-.535-1.522,2.166,2.166,0,0,0-1.685-.589,2.221,2.221,0,0,0-1.7.589,2.143,2.143,0,0,0-.545,1.522,2.189,2.189,0,0,0,.545,1.533,2.186,2.186,0,0,0,1.7.605" transform="translate(-34.209 -37.02)" fill="#fffeff"/>
    <path d="M142.244-15.943a3.438,3.438,0,0,1-.546,1.462,3.016,3.016,0,0,1-1.167,1.014,3.836,3.836,0,0,1-1.746.365,3.676,3.676,0,0,1-2.209-.622,3.6,3.6,0,0,1-1.265-1.713,6.97,6.97,0,0,1-.409-2.449,7.015,7.015,0,0,1,.42-2.487,3.688,3.688,0,0,1,1.282-1.7,3.566,3.566,0,0,1,2.149-.622,3.332,3.332,0,0,1,2.345.785,3.062,3.062,0,0,1,1,1.969h3.8a6.278,6.278,0,0,0-1.052-3.207,6.457,6.457,0,0,0-2.515-2.154,8.032,8.032,0,0,0-3.572-.774,7.818,7.818,0,0,0-3.359.66,7.168,7.168,0,0,0-2.432,1.773,7.513,7.513,0,0,0-1.478,2.531,9.032,9.032,0,0,0-.491,2.967v.534a8.781,8.781,0,0,0,.479,2.869,7.548,7.548,0,0,0,1.446,2.531,7.164,7.164,0,0,0,2.421,1.8,8.066,8.066,0,0,0,3.447.676,8.129,8.129,0,0,0,3.616-.785A6.644,6.644,0,0,0,144.96-12.7a6.16,6.16,0,0,0,1.08-3.245h-3.8Z" transform="translate(-48.912 -40.319)" fill="#fffeff"/>
    <path d="M113.147-25.975h-.169a5.532,5.532,0,0,0-3.049.785,4.822,4.822,0,0,0-1.843,2.345,7.883,7.883,0,0,0-.338,1.113V-25.5h-3.092V-10.23h3.91V-19.2a3.2,3.2,0,0,1,.889-2.378,3.141,3.141,0,0,1,2.318-.889,2.82,2.82,0,0,1,2.209.873,3.231,3.231,0,0,1,.8,2.28v9.081h3.9v-8.742a8.283,8.283,0,0,0-1.407-5.247,4.972,4.972,0,0,0-4.134-1.756" transform="translate(-39.078 -40.355)" fill="#fffeff"/>
    <path d="M84.624-87.039V-122.3L72.871-134.056H61.118V-122.3H49.359v35.265Z" transform="translate(-18.431 0)" fill="#fffeff"/>
    <path d="M49.359-124.059h10v-10h-10Z" transform="translate(-18.431)" fill="#fffeff" fill-rule="evenodd"/>
  </g>
</svg>
